<svg width="14" height="25" viewBox="0 0 14 25" fill="none" xmlns="http://www.w3.org/2000/svg">
<path d="M5.79005 19.0195V13.3235C3.97672 12.8115 2.66472 12.0435 1.85405 11.0195C1.04338 9.99548 0.638051 8.74748 0.638051 7.27548C0.638051 5.78215 1.09672 4.53415 2.01405 3.53148C2.93138 2.52882 4.19005 1.94215 5.79005 1.77148V0.427483H7.77405V1.77148C9.20339 1.94215 10.3447 2.43282 11.1981 3.24348C12.0514 4.05415 12.5954 5.14215 12.8301 6.50748L9.37405 6.92348C9.18205 5.85682 8.64872 5.14215 7.77405 4.77948V10.0915C9.95005 10.7102 11.4327 11.4782 12.2221 12.3955C12.9901 13.3342 13.3741 14.5395 13.3741 16.0115C13.3741 17.6542 12.8834 19.0302 11.9021 20.1395C10.9207 21.2702 9.54472 21.9635 7.77405 22.2195V24.7475H5.79005V22.2835C4.21138 22.0915 2.93138 21.5155 1.95005 20.5555C0.990051 19.5742 0.371384 18.1875 0.0940508 16.3955L3.64605 16.0115C3.77405 16.7368 4.04072 17.3662 4.44605 17.8995C4.85138 18.4115 5.29938 18.7848 5.79005 19.0195ZM5.79005 4.71548C5.23538 4.90748 4.79805 5.22748 4.47805 5.67548C4.17938 6.10215 4.03005 6.58215 4.03005 7.11548C4.03005 7.58482 4.16872 8.03282 4.44605 8.45948C4.74472 8.86482 5.19272 9.19548 5.79005 9.45148V4.71548ZM7.77405 19.2115C8.09405 19.1475 8.39272 19.0408 8.67005 18.8915C8.94738 18.7422 9.19272 18.5288 9.40605 18.2515C9.83272 17.8035 10.0461 17.2168 10.0461 16.4915C10.0461 15.8728 9.86472 15.3502 9.50205 14.9235C9.16072 14.4755 8.58472 14.1342 7.77405 13.8995V19.2115Z" fill="#1E3D8F"/>
</svg>
