<svg width="25" height="25" viewBox="0 0 25 25" fill="none" xmlns="http://www.w3.org/2000/svg">
<g id="Arrow - Left 2">
<g id="Iconly/Bold/Arrow---Left-2">
<g id="Arrow---Left-2">
<path id="Vector" d="M7.67659 11.3219C7.73545 11.2615 7.95768 11.0031 8.1647 10.7906C9.37837 9.45417 12.5445 7.26667 14.2016 6.59896C14.4533 6.49167 15.0895 6.26458 15.4295 6.25C15.7552 6.25 16.0657 6.325 16.3621 6.47708C16.7314 6.68958 17.0277 7.02396 17.1901 7.41875C17.2946 7.69271 17.457 8.5125 17.457 8.52708C17.6194 9.42396 17.7087 10.8812 17.7087 12.4917C17.7087 14.026 17.6194 15.424 17.4864 16.3344C17.4712 16.349 17.3088 17.3677 17.1313 17.7167C16.8055 18.3542 16.1692 18.75 15.4883 18.75H15.4295C14.986 18.7344 14.0534 18.3385 14.0534 18.324C12.4856 17.6552 9.39258 15.575 8.14948 14.1927C8.14948 14.1927 7.79938 13.8375 7.64716 13.6156C7.40971 13.2969 7.29199 12.9021 7.29199 12.5073C7.29199 12.0667 7.42493 11.6562 7.67659 11.3219Z" fill="#1E3D8F"/>
</g>
</g>
</g>
</svg>
