<svg width="34" height="23" viewBox="0 0 34 23" fill="none" xmlns="http://www.w3.org/2000/svg">
<path id="Shape" d="M10.1572 0.908691C11.0924 0.908691 11.9556 0.985016 12.7469 1.21399C13.5382 1.36664 14.1857 1.67194 14.7612 2.05357C15.3367 2.43519 15.7683 2.96947 16.056 3.65639C16.3438 4.34332 16.4877 5.1829 16.4877 6.0988C16.4877 7.16735 16.2719 8.08325 15.7683 8.77017C15.3367 9.4571 14.6173 10.0677 13.754 10.5257C14.977 10.9073 15.9122 11.5942 16.4877 12.5101C17.0632 13.426 17.4228 14.5709 17.4228 15.8684C17.4228 16.937 17.207 17.8529 16.8474 18.6161C16.4877 19.3794 15.9122 20.0663 15.2647 20.5242C14.6173 20.9822 13.826 21.3638 12.9627 21.5928C12.0995 21.8218 11.2362 21.9744 10.373 21.9744H0.733398V0.908691H10.1572ZM9.58169 9.4571C10.373 9.4571 11.0204 9.22813 11.524 8.8465C12.0276 8.46487 12.2434 7.77795 12.2434 6.93837C12.2434 6.48042 12.1714 6.02247 12.0276 5.71717C11.8837 5.41187 11.6679 5.1829 11.3801 4.95392C11.0924 4.80127 10.8046 4.64862 10.4449 4.5723C10.0852 4.49597 9.72556 4.49597 9.29393 4.49597H5.12157V9.4571H9.58169ZM9.7975 18.4635C10.2291 18.4635 10.6607 18.3871 11.0204 18.3108C11.3801 18.2345 11.7398 18.0818 12.0276 17.8529C12.3153 17.6239 12.5311 17.3949 12.7469 17.0133C12.8908 16.6317 13.0347 16.1737 13.0347 15.6394C13.0347 14.5709 12.7469 13.8076 12.1714 13.2734C11.5959 12.8154 10.8046 12.5864 9.86943 12.5864H5.12157V18.4635H9.7975ZM23.6814 18.3871C24.2569 18.9977 25.1201 19.303 26.2711 19.303C27.0624 19.303 27.7818 19.0741 28.3573 18.6924C28.9328 18.2345 29.2925 17.7765 29.4364 17.3186H32.9613C32.3858 19.1504 31.5226 20.4479 30.3716 21.2875C29.2206 22.0507 27.8538 22.5087 26.1992 22.5087C25.0482 22.5087 24.0411 22.2797 23.1059 21.8981C22.1707 21.5165 21.4513 20.9822 20.8039 20.2189C20.1565 19.532 19.6529 18.6924 19.3652 17.7002C19.0055 16.708 18.8616 15.6394 18.8616 14.4182C18.8616 13.2734 19.0055 12.2048 19.3652 11.2126C19.7248 10.2204 20.2284 9.38078 20.8758 8.61753C21.5233 7.9306 22.3146 7.32 23.1778 6.93837C24.113 6.55675 25.0482 6.32777 26.1992 6.32777C27.4221 6.32777 28.5012 6.55675 29.4364 7.09102C30.3716 7.6253 31.0909 8.2359 31.6664 9.1518C32.2419 9.99138 32.6736 10.9836 32.9613 12.0522C33.1052 13.1207 33.1771 14.1893 33.1052 15.4105H22.6743C22.6743 16.6317 23.1059 17.7765 23.6814 18.3871ZM28.2134 10.373C27.7099 9.83873 26.9186 9.53343 25.9834 9.53343C25.3359 9.53343 24.8324 9.68608 24.4008 9.91505C23.9691 10.144 23.6814 10.4493 23.3936 10.7546C23.1059 11.0599 22.962 11.4416 22.8901 11.8232C22.8181 12.2048 22.7462 12.5101 22.7462 12.8154H29.2206C29.0767 11.6705 28.717 10.9073 28.2134 10.373ZM21.883 2.35887H29.9399V4.41965H21.883V2.35887Z" fill="#0375FA"/>
</svg>
