<svg width="21" height="21" viewBox="0 0 21 21" fill="none" xmlns="http://www.w3.org/2000/svg">
<g id="fluent-emoji:money-bag">
<g id="Group">
<g id="Group_2" filter="url(#filter0_i_1019_182)">
<path id="Vector" d="M3.10596 13.3433C3.10596 9.37389 6.32408 6.15576 10.2935 6.15576H10.6453C14.6141 6.15576 17.8328 9.37389 17.8328 13.3433V13.522C17.8328 14.9807 17.2534 16.3797 16.2219 17.4111C15.1905 18.4425 13.7915 19.022 12.3328 19.022H8.60596C7.14727 19.022 5.74832 18.4425 4.71687 17.4111C3.68542 16.3797 3.10596 14.9807 3.10596 13.522V13.3433Z" fill="url(#paint0_radial_1019_182)"/>
<path id="Vector_2" d="M3.10596 13.3433C3.10596 9.37389 6.32408 6.15576 10.2935 6.15576H10.6453C14.6141 6.15576 17.8328 9.37389 17.8328 13.3433V13.522C17.8328 14.9807 17.2534 16.3797 16.2219 17.4111C15.1905 18.4425 13.7915 19.022 12.3328 19.022H8.60596C7.14727 19.022 5.74832 18.4425 4.71687 17.4111C3.68542 16.3797 3.10596 14.9807 3.10596 13.522V13.3433Z" fill="url(#paint1_radial_1019_182)"/>
</g>
<path id="Vector_3" d="M3.10596 13.3433C3.10596 9.37389 6.32408 6.15576 10.2935 6.15576H10.6453C14.6141 6.15576 17.8328 9.37389 17.8328 13.3433V13.522C17.8328 14.9807 17.2534 16.3797 16.2219 17.4111C15.1905 18.4425 13.7915 19.022 12.3328 19.022H8.60596C7.14727 19.022 5.74832 18.4425 4.71687 17.4111C3.68542 16.3797 3.10596 14.9807 3.10596 13.522V13.3433Z" fill="url(#paint2_radial_1019_182)"/>
<path id="Vector_4" d="M3.10596 13.3433C3.10596 9.37389 6.32408 6.15576 10.2935 6.15576H10.6453C14.6141 6.15576 17.8328 9.37389 17.8328 13.3433V13.522C17.8328 14.9807 17.2534 16.3797 16.2219 17.4111C15.1905 18.4425 13.7915 19.022 12.3328 19.022H8.60596C7.14727 19.022 5.74832 18.4425 4.71687 17.4111C3.68542 16.3797 3.10596 14.9807 3.10596 13.522V13.3433Z" fill="url(#paint3_radial_1019_182)"/>
<g id="Group_3" filter="url(#filter1_ii_1019_182)">
<path id="Vector_5" d="M7.93036 3.22563C8.22411 3.72625 8.65223 4.36875 9.20223 4.89563H11.7366C12.2866 4.36875 12.7141 3.72688 13.0085 3.22563C13.0437 3.16417 13.066 3.09614 13.0739 3.02576C13.0818 2.95537 13.0752 2.8841 13.0545 2.81635C13.0339 2.7486 12.9996 2.6858 12.9537 2.63182C12.9078 2.57785 12.8514 2.53383 12.7879 2.5025C12.5879 2.4 12.3529 2.44875 12.1585 2.56187C11.7197 2.8175 11.4666 2.51625 11.0797 1.92437C10.8854 1.62687 10.5885 1.61125 10.4691 1.60938C10.3504 1.61125 10.0535 1.62687 9.85911 1.92437C9.47161 2.51625 9.21911 2.8175 8.78036 2.56187C8.58598 2.44875 8.35098 2.4 8.15036 2.5025C8.08688 2.53389 8.03051 2.57794 7.98471 2.63195C7.9389 2.68595 7.90464 2.74876 7.88403 2.8165C7.86342 2.88425 7.8569 2.9555 7.86487 3.02586C7.87283 3.09622 7.89512 3.1642 7.93036 3.22563Z" fill="url(#paint4_linear_1019_182)"/>
</g>
<g id="Group_4" filter="url(#filter2_f_1019_182)">
<path id="Vector_6" d="M10.8297 9.20264C10.8297 9.07003 10.777 8.94285 10.6832 8.84908C10.5895 8.75531 10.4623 8.70264 10.3297 8.70264C10.1971 8.70264 10.0699 8.75531 9.97612 8.84908C9.88236 8.94285 9.82968 9.07003 9.82968 9.20264V9.67451C9.82968 9.78639 9.75468 9.88326 9.6503 9.92326C9.46999 9.99179 9.30004 10.085 9.1453 10.2001C8.9174 10.3671 8.73282 10.5862 8.607 10.8391C8.48119 11.092 8.41781 11.3714 8.42218 11.6539C8.42218 12.3164 8.72093 12.7964 9.12655 13.1039C9.5128 13.3976 9.97968 13.5239 10.3516 13.5576C10.5028 13.5714 10.7284 13.612 10.9147 13.7295C11.0766 13.8314 11.2372 14.0058 11.2709 14.3795C11.3034 14.737 11.1584 14.9495 10.9691 15.0939C10.7503 15.2608 10.4959 15.3139 10.4316 15.3139C10.2809 15.3139 10.0228 15.2939 9.80405 15.1751C9.6203 15.0751 9.4228 14.887 9.38155 14.4264C9.3697 14.2943 9.30585 14.1723 9.20406 14.0872C9.10226 14.0022 8.97085 13.9611 8.83874 13.9729C8.70663 13.9848 8.58464 14.0486 8.4996 14.1504C8.41457 14.2522 8.37345 14.3837 8.3853 14.5158C8.45655 15.3151 8.85405 15.797 9.32718 16.0545C9.43155 16.1108 9.53718 16.1551 9.6403 16.1901C9.69417 16.207 9.7414 16.2403 9.77537 16.2853C9.80934 16.3304 9.82833 16.385 9.82968 16.4414V16.8683C9.82968 17.0009 9.88236 17.128 9.97612 17.2218C10.0699 17.3156 10.1971 17.3683 10.3297 17.3683C10.4623 17.3683 10.5895 17.3156 10.6832 17.2218C10.777 17.128 10.8297 17.0009 10.8297 16.8683V16.4458C10.8297 16.3333 10.9059 16.2351 11.0122 16.1958C11.1997 16.127 11.3959 16.0258 11.5747 15.8895C11.9903 15.5726 12.3359 15.0458 12.2672 14.2895C12.2034 13.5889 11.8522 13.167 11.4422 12.9083C11.1334 12.7199 10.7864 12.6033 10.4266 12.567C9.85843 12.5376 9.42218 12.2239 9.42218 11.6539C9.42218 11.3401 9.54718 11.1101 9.73093 10.9726C10.1116 10.6501 10.7584 10.6939 11.0641 11.0989C11.1991 11.2783 11.2597 11.4758 11.2734 11.6539C11.2947 11.9289 11.5328 12.1483 11.8084 12.127C12.0834 12.1064 12.2891 11.8908 12.2678 11.6151C12.2377 11.2193 12.0962 10.8401 11.8597 10.5214C11.6697 10.2689 11.3103 10.0276 11.0159 9.90639C10.9628 9.88644 10.9168 9.85124 10.8837 9.80519C10.8505 9.75915 10.8317 9.70433 10.8297 9.64764V9.20264Z" fill="url(#paint5_linear_1019_182)"/>
</g>
<g id="Group_5" filter="url(#filter3_ii_1019_182)">
<path id="Vector_7" d="M10.9546 9.13867C10.9546 9.00606 10.902 8.87889 10.8082 8.78512C10.7144 8.69135 10.5873 8.63867 10.4546 8.63867C10.322 8.63867 10.1949 8.69135 10.1011 8.78512C10.0073 8.87889 9.95465 9.00606 9.95465 9.13867V9.61055C9.95465 9.72305 9.87965 9.8193 9.77527 9.8593C9.59497 9.92785 9.42503 10.021 9.27027 10.1362C9.04253 10.3032 8.85809 10.5223 8.73239 10.7753C8.60669 11.0282 8.54339 11.3075 8.54777 11.5899C8.54777 12.2524 8.8459 12.7324 9.25152 13.0399C9.63777 13.3337 10.104 13.4605 10.4765 13.4943C10.6278 13.508 10.8534 13.548 11.0403 13.6655C11.2015 13.7674 11.3621 13.9418 11.3965 14.3155C11.429 14.6737 11.2834 14.8862 11.0934 15.0305C10.8746 15.1974 10.6209 15.2499 10.5559 15.2499C10.4059 15.2499 10.1478 15.2299 9.92902 15.1118C9.74527 15.0118 9.54777 14.823 9.50652 14.363C9.5007 14.2976 9.48204 14.234 9.45162 14.1758C9.42121 14.1176 9.37962 14.066 9.32925 14.0238C9.27887 13.9817 9.22069 13.9499 9.15803 13.9302C9.09536 13.9106 9.02944 13.9035 8.96402 13.9093C8.89861 13.9151 8.83498 13.9338 8.77678 13.9642C8.71857 13.9946 8.66693 14.0362 8.62479 14.0866C8.58266 14.1369 8.55086 14.1951 8.53121 14.2578C8.51156 14.3205 8.50445 14.3864 8.51027 14.4518C8.58152 15.2518 8.97902 15.7337 9.45215 15.9905C9.55652 16.0468 9.66215 16.0918 9.76527 16.1262C9.87465 16.1637 9.95465 16.2624 9.95465 16.378V16.8049C9.95465 16.9375 10.0073 17.0647 10.1011 17.1585C10.1949 17.2522 10.322 17.3049 10.4546 17.3049C10.5873 17.3049 10.7144 17.2522 10.8082 17.1585C10.902 17.0647 10.9546 16.9375 10.9546 16.8049V16.3824C10.9546 16.2693 11.0309 16.1718 11.1371 16.1324C11.3246 16.0637 11.5209 15.9624 11.6996 15.8262C12.1153 15.5093 12.4609 14.9818 12.3921 14.2255C12.3284 13.5249 11.9771 13.1037 11.5671 12.8443C11.2584 12.656 10.9113 12.5393 10.5515 12.503C9.9834 12.4737 9.54715 12.1599 9.54715 11.5905C9.54715 11.2768 9.67215 11.0468 9.8559 10.9093C10.2365 10.5868 10.8834 10.6305 11.189 11.0355C11.324 11.2149 11.3846 11.4124 11.3984 11.5899C11.4196 11.8649 11.6578 12.0849 11.9334 12.0637C12.2084 12.0424 12.414 11.8268 12.3928 11.5512C12.3627 11.1554 12.2212 10.7762 11.9846 10.4574C11.7946 10.2055 11.4353 9.96367 11.1409 9.84242C11.0878 9.82248 11.0418 9.78727 11.0086 9.74123C10.9755 9.69518 10.9567 9.64037 10.9546 9.58367V9.13867Z" fill="url(#paint6_linear_1019_182)"/>
</g>
<g id="Group_6" filter="url(#filter4_i_1019_182)">
<path id="Vector_8" d="M11.5897 4.89551H9.31972C8.95693 4.89551 8.66284 5.1896 8.66284 5.55238V5.55676C8.66284 5.91954 8.95693 6.21363 9.31972 6.21363H11.5897C11.9525 6.21363 12.2466 5.91954 12.2466 5.55676V5.55238C12.2466 5.1896 11.9525 4.89551 11.5897 4.89551Z" fill="url(#paint7_linear_1019_182)"/>
<path id="Vector_9" d="M11.5897 4.89551H9.31972C8.95693 4.89551 8.66284 5.1896 8.66284 5.55238V5.55676C8.66284 5.91954 8.95693 6.21363 9.31972 6.21363H11.5897C11.9525 6.21363 12.2466 5.91954 12.2466 5.55676V5.55238C12.2466 5.1896 11.9525 4.89551 11.5897 4.89551Z" fill="url(#paint8_radial_1019_182)"/>
</g>
<path id="Vector_10" d="M11.5897 4.89551H9.31972C8.95693 4.89551 8.66284 5.1896 8.66284 5.55238V5.55676C8.66284 5.91954 8.95693 6.21363 9.31972 6.21363H11.5897C11.9525 6.21363 12.2466 5.91954 12.2466 5.55676V5.55238C12.2466 5.1896 11.9525 4.89551 11.5897 4.89551Z" fill="url(#paint9_radial_1019_182)"/>
</g>
</g>
<defs>
<filter id="filter0_i_1019_182" x="3.10596" y="4.65576" width="15.7269" height="14.3662" filterUnits="userSpaceOnUse" color-interpolation-filters="sRGB">
<feFlood flood-opacity="0" result="BackgroundImageFix"/>
<feBlend mode="normal" in="SourceGraphic" in2="BackgroundImageFix" result="shape"/>
<feColorMatrix in="SourceAlpha" type="matrix" values="0 0 0 0 0 0 0 0 0 0 0 0 0 0 0 0 0 0 127 0" result="hardAlpha"/>
<feOffset dx="1" dy="-1.5"/>
<feGaussianBlur stdDeviation="1.75"/>
<feComposite in2="hardAlpha" operator="arithmetic" k2="-1" k3="1"/>
<feColorMatrix type="matrix" values="0 0 0 0 0.713726 0 0 0 0 0.321569 0 0 0 0 0.211765 0 0 0 1 0"/>
<feBlend mode="normal" in2="shape" result="effect1_innerShadow_1019_182"/>
</filter>
<filter id="filter1_ii_1019_182" x="7.66157" y="1.35938" width="5.51558" height="3.73613" filterUnits="userSpaceOnUse" color-interpolation-filters="sRGB">
<feFlood flood-opacity="0" result="BackgroundImageFix"/>
<feBlend mode="normal" in="SourceGraphic" in2="BackgroundImageFix" result="shape"/>
<feColorMatrix in="SourceAlpha" type="matrix" values="0 0 0 0 0 0 0 0 0 0 0 0 0 0 0 0 0 0 127 0" result="hardAlpha"/>
<feOffset dx="-0.2" dy="0.2"/>
<feGaussianBlur stdDeviation="0.15"/>
<feComposite in2="hardAlpha" operator="arithmetic" k2="-1" k3="1"/>
<feColorMatrix type="matrix" values="0 0 0 0 1 0 0 0 0 0.92549 0 0 0 0 0.403922 0 0 0 1 0"/>
<feBlend mode="normal" in2="shape" result="effect1_innerShadow_1019_182"/>
<feColorMatrix in="SourceAlpha" type="matrix" values="0 0 0 0 0 0 0 0 0 0 0 0 0 0 0 0 0 0 127 0" result="hardAlpha"/>
<feOffset dx="0.1" dy="-0.25"/>
<feGaussianBlur stdDeviation="0.25"/>
<feComposite in2="hardAlpha" operator="arithmetic" k2="-1" k3="1"/>
<feColorMatrix type="matrix" values="0 0 0 0 0.788235 0 0 0 0 0.364706 0 0 0 0 0.12549 0 0 0 1 0"/>
<feBlend mode="normal" in2="effect1_innerShadow_1019_182" result="effect2_innerShadow_1019_182"/>
</filter>
<filter id="filter2_f_1019_182" x="8.0833" y="8.40264" width="4.4927" height="9.26553" filterUnits="userSpaceOnUse" color-interpolation-filters="sRGB">
<feFlood flood-opacity="0" result="BackgroundImageFix"/>
<feBlend mode="normal" in="SourceGraphic" in2="BackgroundImageFix" result="shape"/>
<feGaussianBlur stdDeviation="0.15" result="effect1_foregroundBlur_1019_182"/>
</filter>
<filter id="filter3_ii_1019_182" x="8.4083" y="8.43867" width="4.14258" height="9.01602" filterUnits="userSpaceOnUse" color-interpolation-filters="sRGB">
<feFlood flood-opacity="0" result="BackgroundImageFix"/>
<feBlend mode="normal" in="SourceGraphic" in2="BackgroundImageFix" result="shape"/>
<feColorMatrix in="SourceAlpha" type="matrix" values="0 0 0 0 0 0 0 0 0 0 0 0 0 0 0 0 0 0 127 0" result="hardAlpha"/>
<feOffset dx="0.15" dy="-0.2"/>
<feGaussianBlur stdDeviation="0.15"/>
<feComposite in2="hardAlpha" operator="arithmetic" k2="-1" k3="1"/>
<feColorMatrix type="matrix" values="0 0 0 0 0.352941 0 0 0 0 0.168627 0 0 0 0 0.188235 0 0 0 1 0"/>
<feBlend mode="normal" in2="shape" result="effect1_innerShadow_1019_182"/>
<feColorMatrix in="SourceAlpha" type="matrix" values="0 0 0 0 0 0 0 0 0 0 0 0 0 0 0 0 0 0 127 0" result="hardAlpha"/>
<feOffset dx="-0.1" dy="0.15"/>
<feGaussianBlur stdDeviation="0.11"/>
<feComposite in2="hardAlpha" operator="arithmetic" k2="-1" k3="1"/>
<feColorMatrix type="matrix" values="0 0 0 0 0.670588 0 0 0 0 0.458824 0 0 0 0 0.403922 0 0 0 1 0"/>
<feBlend mode="normal" in2="effect1_innerShadow_1019_182" result="effect2_innerShadow_1019_182"/>
</filter>
<filter id="filter4_i_1019_182" x="8.66284" y="4.29551" width="3.58374" height="1.91836" filterUnits="userSpaceOnUse" color-interpolation-filters="sRGB">
<feFlood flood-opacity="0" result="BackgroundImageFix"/>
<feBlend mode="normal" in="SourceGraphic" in2="BackgroundImageFix" result="shape"/>
<feColorMatrix in="SourceAlpha" type="matrix" values="0 0 0 0 0 0 0 0 0 0 0 0 0 0 0 0 0 0 127 0" result="hardAlpha"/>
<feOffset dy="-0.6"/>
<feGaussianBlur stdDeviation="0.5"/>
<feComposite in2="hardAlpha" operator="arithmetic" k2="-1" k3="1"/>
<feColorMatrix type="matrix" values="0 0 0 0 0.388235 0 0 0 0 0.223529 0 0 0 0 0.109804 0 0 0 1 0"/>
<feBlend mode="normal" in2="shape" result="effect1_innerShadow_1019_182"/>
</filter>
<radialGradient id="paint0_radial_1019_182" cx="0" cy="0" r="1" gradientUnits="userSpaceOnUse" gradientTransform="translate(12.4804 7.36213) rotate(100.07) scale(11.5054 12.0506)">
<stop stop-color="#F6C93B"/>
<stop offset="1" stop-color="#E88340"/>
</radialGradient>
<radialGradient id="paint1_radial_1019_182" cx="0" cy="0" r="1" gradientUnits="userSpaceOnUse" gradientTransform="translate(15.3718 9.15818) rotate(133.199) scale(4.39397 7.36162)">
<stop stop-color="#FFE065"/>
<stop offset="1" stop-color="#FFE065" stop-opacity="0"/>
</radialGradient>
<radialGradient id="paint2_radial_1019_182" cx="0" cy="0" r="1" gradientUnits="userSpaceOnUse" gradientTransform="translate(4.12158 9.15889) rotate(31.6513) scale(3.34982 8.30206)">
<stop offset="0.187" stop-color="#FFA45D"/>
<stop offset="1" stop-color="#FFA45D" stop-opacity="0"/>
</radialGradient>
<radialGradient id="paint3_radial_1019_182" cx="0" cy="0" r="1" gradientUnits="userSpaceOnUse" gradientTransform="translate(10.4691 16.0726) rotate(-90) scale(10.1953 15.3608)">
<stop offset="0.928" stop-color="#F3BD46" stop-opacity="0"/>
<stop offset="0.98" stop-color="#917011"/>
</radialGradient>
<linearGradient id="paint4_linear_1019_182" x1="11.2529" y1="2.72313" x2="10.4691" y2="4.89563" gradientUnits="userSpaceOnUse">
<stop stop-color="#F3C048"/>
<stop offset="1" stop-color="#E67A41"/>
</linearGradient>
<linearGradient id="paint5_linear_1019_182" x1="10.3297" y1="8.90951" x2="10.3297" y2="16.9176" gradientUnits="userSpaceOnUse">
<stop stop-color="#A6782C"/>
<stop offset="1" stop-color="#B95940"/>
</linearGradient>
<linearGradient id="paint6_linear_1019_182" x1="12.6178" y1="13.963" x2="8.5084" y2="13.963" gradientUnits="userSpaceOnUse">
<stop stop-color="#9D6360"/>
<stop offset="1" stop-color="#724A4D"/>
</linearGradient>
<linearGradient id="paint7_linear_1019_182" x1="9.16097" y1="5.55488" x2="12.2466" y2="5.55488" gradientUnits="userSpaceOnUse">
<stop stop-color="#834B41"/>
<stop offset="1" stop-color="#735854"/>
</linearGradient>
<radialGradient id="paint8_radial_1019_182" cx="0" cy="0" r="1" gradientUnits="userSpaceOnUse" gradientTransform="translate(11.6216 5.34988) rotate(180) scale(1.16699 0.878906)">
<stop stop-color="#7D5A54"/>
<stop offset="1" stop-color="#7D5A54" stop-opacity="0"/>
</radialGradient>
<radialGradient id="paint9_radial_1019_182" cx="0" cy="0" r="1" gradientUnits="userSpaceOnUse" gradientTransform="translate(11.7778 5.55488) rotate(180) scale(3.45703 2.76939)">
<stop offset="0.695" stop-color="#B3624D" stop-opacity="0"/>
<stop offset="0.96" stop-color="#B3624D"/>
</radialGradient>
</defs>
</svg>
