<svg width="36" height="36" viewBox="0 0 36 36" fill="none" xmlns="http://www.w3.org/2000/svg">
<g id="Edit">
<g id="Iconly/Bold/Edit">
<g id="Edit_2">
<path id="Vector" d="M29.9847 28.4299C30.8203 28.4299 31.5 29.1184 31.5 29.9649C31.5 30.8131 30.8203 31.5 29.9847 31.5H21.4195C20.5839 31.5 19.9042 30.8131 19.9042 29.9649C19.9042 29.1184 20.5839 28.4299 21.4195 28.4299H29.9847ZM24.0448 5.5486L26.2573 7.30618C27.1646 8.01566 27.7694 8.95088 27.9764 9.93448C28.2151 11.0164 27.9605 12.0791 27.2442 12.9982L14.0646 30.0419C13.4597 30.8158 12.5684 31.2512 11.6133 31.2673L6.36059 31.3318C6.07408 31.3318 5.83532 31.1383 5.77165 30.8642L4.57785 25.6882C4.37092 24.7369 4.57785 23.7533 5.18271 22.9954L14.5262 10.902C14.6854 10.7085 14.9719 10.6778 15.1629 10.8213L19.0945 13.9495C19.3492 14.1591 19.6993 14.272 20.0654 14.2236C20.8454 14.1269 21.3707 13.4174 21.2911 12.6595C21.2433 12.2726 21.0523 11.9501 20.7976 11.7082C20.7181 11.6437 16.9775 8.64452 16.9775 8.64452C16.7387 8.45102 16.691 8.09628 16.882 7.85602L18.3623 5.93559C19.7312 4.17801 22.1188 4.01676 24.0448 5.5486Z" fill="#1E3D8F"/>
</g>
</g>
</g>
</svg>
