<svg width="206" height="207" viewBox="0 0 206 207" fill="none" xmlns="http://www.w3.org/2000/svg">
<g id="iconamoon:unavailable-duotone">
<g id="Group">
<path id="Vector" opacity="0.16" d="M103 180.908C145.457 180.908 179.875 146.322 179.875 103.658C179.875 60.9942 145.457 26.4082 103 26.4082C60.5431 26.4082 26.125 60.9942 26.125 103.658C26.125 146.322 60.5431 180.908 103 180.908Z" fill="black" fill-opacity="0.08"/>
<path id="Vector_2" d="M103 172.325C84.8771 172.325 67.4962 165.09 54.6812 152.213C41.8662 139.335 34.6669 121.87 34.6669 103.658H17.5835C17.5835 151.064 55.8246 189.491 103 189.491V172.325ZM103 34.9914C121.123 34.9914 138.504 42.2259 151.319 55.1034C164.134 67.9809 171.334 85.4466 171.334 103.658H188.417C188.417 56.2523 150.176 17.8248 103 17.8248V34.9914ZM34.6669 103.658C34.6525 94.6385 36.4134 85.705 39.848 77.3718C43.2827 69.0386 48.3234 61.4702 54.68 55.1022L42.6106 42.9739C34.6678 50.9345 28.3681 60.3934 24.0732 70.8074C19.7783 81.2213 17.5729 92.3853 17.5835 103.658H34.6669ZM54.68 55.1022C61.0177 48.7153 68.5495 43.6505 76.8421 40.1992C85.1347 36.7478 94.0245 34.978 103 34.9914V17.8248C91.7812 17.8118 80.6703 20.0261 70.3053 24.3405C59.9404 28.6548 50.5258 34.9843 42.6021 42.9653L54.68 55.1022ZM42.6021 55.1022L151.32 164.351L163.398 152.214L54.68 42.9653L42.6021 55.1022ZM171.334 103.658C171.348 112.678 169.587 121.611 166.152 129.944C162.718 138.278 157.677 145.846 151.32 152.214L163.398 164.351C171.341 156.388 177.639 146.928 181.933 136.512C186.226 126.097 188.43 114.932 188.417 103.658H171.334ZM151.32 152.214C144.983 158.601 137.451 163.666 129.158 167.117C120.866 170.568 111.976 172.338 103 172.325V189.491C114.219 189.504 125.33 187.29 135.695 182.976C146.06 178.661 155.475 172.332 163.398 164.351L151.32 152.214Z" fill="black" fill-opacity="0.08"/>
</g>
</g>
</svg>
