<svg width="24" height="25" viewBox="0 0 24 25" fill="none" xmlns="http://www.w3.org/2000/svg">
<g id="heroicons-outline:logout">
<path id="Vector" d="M17 16.6113L21 12.6113M21 12.6113L17 8.61133M21 12.6113H7M13 16.6113V17.6113C13 18.407 12.6839 19.17 12.1213 19.7326C11.5587 20.2953 10.7956 20.6113 10 20.6113H6C5.20435 20.6113 4.44129 20.2953 3.87868 19.7326C3.31607 19.17 3 18.407 3 17.6113V7.61133C3 6.81568 3.31607 6.05262 3.87868 5.49001C4.44129 4.9274 5.20435 4.61133 6 4.61133H10C10.7956 4.61133 11.5587 4.9274 12.1213 5.49001C12.6839 6.05262 13 6.81568 13 7.61133V8.61133" stroke="white" stroke-width="2" stroke-linecap="round" stroke-linejoin="round"/>
</g>
</svg>
