<svg width="105" height="104" viewBox="0 0 105 104" fill="none" xmlns="http://www.w3.org/2000/svg">
<g id="icon-park-outline:picture-album">
<g id="Group">
<path id="Vector" d="M74.61 13H18.2767C15.8835 13 13.9434 14.9401 13.9434 17.3333V73.6667C13.9434 76.0599 15.8835 78 18.2767 78H74.61C77.0033 78 78.9434 76.0599 78.9434 73.6667V17.3333C78.9434 14.9401 77.0033 13 74.61 13Z" stroke="#CDCDCD" stroke-width="7.33333" stroke-linejoin="round"/>
<path id="Vector_2" d="M91.9434 26V84.5C91.9434 86.2239 91.2585 87.8772 90.0396 89.0962C88.8206 90.3152 87.1673 91 85.4434 91H26.9434M13.9434 54.1667L30.5314 39.4203C31.3308 38.7098 32.3648 38.32 33.4344 38.326C34.504 38.332 35.5336 38.7333 36.325 39.4528L57.2767 58.5" stroke="#CDCDCD" stroke-width="7.33333" stroke-linecap="round" stroke-linejoin="round"/>
<path id="Vector_3" d="M48.61 49.8333L58.9775 41.1926C59.7271 40.5684 60.6653 40.2154 61.6405 40.1906C62.6156 40.1658 63.5706 40.4708 64.3509 41.0561L78.9434 52M13.9434 41.1666V58.5M78.9434 41.1666V58.5" stroke="#CDCDCD" stroke-width="7.33333" stroke-linecap="round" stroke-linejoin="round"/>
</g>
</g>
</svg>
