<svg width="29" height="29" viewBox="0 0 29 29" fill="none" xmlns="http://www.w3.org/2000/svg">
<g id="Wallet">
<g id="Group 35">
<g id="Group 25">
<circle id="Ellipse 5" cx="14.4521" cy="14.6172" r="13.8984" fill="#1E3D8F"/>
</g>
<path id="Vector" d="M18.6339 6.28271C21.8278 6.28271 23.7129 8.1206 23.7129 11.2667H19.7946V11.2988C17.9761 11.2988 16.5019 12.7361 16.5019 14.509C16.5019 16.282 17.9761 17.7193 19.7946 17.7193H23.7129V18.0082C23.7129 21.1142 21.8278 22.9521 18.6339 22.9521H10.2704C7.07648 22.9521 5.19141 21.1142 5.19141 18.0082V11.2265C5.19141 8.1206 7.07648 6.28271 10.2704 6.28271H18.6339ZM23.0214 12.6471C23.4033 12.6471 23.7129 12.9489 23.7129 13.3212V15.6647C23.7084 16.0353 23.4015 16.3346 23.0214 16.3389H19.8687C18.948 16.351 18.143 15.7364 17.9342 14.8622C17.8296 14.3195 17.9764 13.7594 18.3352 13.3322C18.6941 12.905 19.2282 12.6542 19.7946 12.6471H23.0214ZM20.2391 13.7305H19.9345C19.7475 13.7284 19.5674 13.7993 19.4344 13.9275C19.3014 14.0557 19.2266 14.2304 19.2266 14.4127C19.2265 14.7952 19.5422 15.1066 19.9345 15.111H20.2391C20.6301 15.111 20.947 14.8019 20.947 14.4208C20.947 14.0396 20.6301 13.7305 20.2391 13.7305ZM14.8061 9.88625H9.57894C9.19115 9.88622 8.87552 10.1904 8.87101 10.5684C8.87101 10.9509 9.18663 11.2623 9.57894 11.2667H14.8061C15.1971 11.2667 15.514 10.9576 15.514 10.5765C15.514 10.1953 15.1971 9.88625 14.8061 9.88625Z" fill="white"/>
</g>
</g>
</svg>
