<svg width="29" height="28" viewBox="0 0 29 28" fill="none" xmlns="http://www.w3.org/2000/svg">
<g id="Group 33">
<g id="Group 30">
<circle id="Ellipse 5" cx="14.4517" cy="13.959" r="13.8984" fill="#1E3D8F"/>
</g>
<g id="Iconly/Bold/Info-Square">
<g id="Info-Square">
<path id="Vector" d="M18.0465 5.57471C20.8543 5.57471 22.7344 7.54594 22.7344 10.4779V17.2455C22.7344 20.1692 20.8543 22.1396 18.0465 22.1396H10.8656C8.05784 22.1396 6.16943 20.1692 6.16943 17.2455V10.4779C6.16943 7.54594 8.05784 5.57471 10.8656 5.57471H18.0465ZM14.4436 12.5991C14.0461 12.5991 13.723 12.9295 13.723 13.3279V16.9888C13.723 17.3863 14.0461 17.7094 14.4436 17.7094C14.8495 17.7094 15.1725 17.3863 15.1725 16.9888V13.3279C15.1725 12.9295 14.8495 12.5991 14.4436 12.5991ZM14.4602 9.97353C14.0543 9.97353 13.7313 10.2965 13.7313 10.7024C13.7313 11.0991 14.0543 11.423 14.4436 11.423C14.8577 11.423 15.1808 11.0991 15.1808 10.7024C15.1808 10.2965 14.8577 9.97353 14.4602 9.97353Z" fill="white"/>
</g>
</g>
</g>
</svg>
