<svg width="29" height="29" viewBox="0 0 29 29" fill="none" xmlns="http://www.w3.org/2000/svg">
<g id="Group 23">
<circle id="Ellipse 3" cx="14.5327" cy="14.7261" r="13.8984" fill="#1E3D8F"/>
<g id="Iconly/Bold/Home">
<g id="Home">
<path id="Vector" d="M11.7638 21.8375V18.8828C11.7638 18.1286 12.3797 17.5171 13.1395 17.5171H15.9168C16.2817 17.5171 16.6316 17.661 16.8896 17.9171C17.1476 18.1733 17.2925 18.5206 17.2925 18.8828V21.8375C17.2902 22.1511 17.4141 22.4526 17.6366 22.6752C17.8592 22.8977 18.162 23.0229 18.4779 23.0229H20.3727C21.2577 23.0251 22.1072 22.6778 22.7337 22.0573C23.3603 21.4369 23.7125 20.5945 23.7125 19.716V11.2985C23.7125 10.5888 23.3956 9.91568 22.8472 9.46038L16.4014 4.34975C15.2801 3.45369 13.6736 3.48262 12.5858 4.41847L6.28697 9.46038C5.71272 9.90226 5.3695 10.5774 5.35254 11.2985V19.7074C5.35254 21.5385 6.84779 23.0229 8.69228 23.0229H10.5438C11.1999 23.0229 11.7331 22.4974 11.7378 21.8461L11.7638 21.8375Z" fill="white"/>
</g>
</g>
</g>
</svg>
