<svg width="29" height="29" viewBox="0 0 29 29" fill="none" xmlns="http://www.w3.org/2000/svg">
<g id="Group 32">
<g id="Group 31">
<circle id="Ellipse 5" cx="14.4521" cy="14.8574" r="13.8984" fill="#1E3D8F"/>
</g>
<path id="Vector" d="M22.5986 9.28445C19.736 4.84682 13.874 3.53196 9.34044 6.28494C4.9165 9.03792 3.49208 15.0369 6.35463 19.4609L6.58747 19.817L5.62872 23.4054L9.21717 22.4467L9.57328 22.6795C11.121 23.515 12.8056 23.9944 14.4766 23.9944C16.2708 23.9944 18.065 23.515 19.6127 22.5563C24.0367 19.68 25.3515 13.8043 22.5986 9.25706V9.28445ZM20.0921 18.5158C19.6127 19.228 19.0101 19.7074 18.1746 19.8307C17.6952 19.8307 17.0926 20.0635 14.7094 19.1185C12.6824 18.1597 10.9977 16.5983 9.80612 14.8041C9.09391 13.9686 8.7241 12.8866 8.61453 11.8046C8.61453 10.8458 8.97064 10.0104 9.57328 9.40772C9.80612 9.17488 10.0527 9.05161 10.2855 9.05161H10.8881C11.121 9.05161 11.3675 9.05161 11.4908 9.53099C11.7236 10.1336 12.3263 11.5718 12.3263 11.695C12.4495 11.8183 12.3947 12.7359 11.8469 13.2564C11.5456 13.5988 11.4908 13.6125 11.614 13.859C12.0934 14.5713 12.6961 15.2972 13.285 15.8998C13.9972 16.5025 14.7231 16.9818 15.5586 17.3379C15.7914 17.4612 16.038 17.4612 16.1612 17.2147C16.2845 16.9818 16.8735 16.3792 17.12 16.1327C17.3528 15.8998 17.4761 15.8998 17.7226 16.0094L19.6401 16.9681C19.873 17.0914 20.1195 17.201 20.2428 17.3242C20.366 17.6803 20.366 18.1597 20.1195 18.5158H20.0921Z" fill="white"/>
</g>
</svg>
