<svg width="29" height="29" viewBox="0 0 29 29" fill="none" xmlns="http://www.w3.org/2000/svg">
<g id="&#216;&#167;&#216;&#182;&#216;&#167;&#217;&#129;&#216;&#169; &#216;&#177;&#216;&#181;&#217;&#138;&#216;&#175;">
<g id="Group 26">
<circle id="Ellipse 5" cx="14.4521" cy="14.7153" r="13.8984" fill="#1E3D8F"/>
</g>
<g id="Group">
<path id="Vector" d="M20.4521 17.8169V20.8169V17.8169ZM20.4521 23.8169V20.8169V23.8169ZM20.4521 20.8169H17.4521H20.4521ZM20.4521 20.8169H23.4521H20.4521Z" fill="white"/>
<path id="Vector_2" fill-rule="evenodd" clip-rule="evenodd" d="M7.45215 7.81689C6.6565 7.81689 5.89344 8.13297 5.33083 8.69557C4.76822 9.25818 4.45215 10.0212 4.45215 10.8169V18.8169C4.45215 19.6125 4.76822 20.3756 5.33083 20.9382C5.89344 21.5008 6.6565 21.8169 7.45215 21.8169H14.5351C14.4798 21.4864 14.452 21.152 14.4521 20.8169C14.4521 19.6689 14.7741 18.5969 15.3331 17.6859C14.8844 17.8235 14.4096 17.854 13.947 17.7748C13.4843 17.6956 13.0467 17.509 12.6692 17.23C12.2918 16.951 11.985 16.5873 11.7736 16.1682C11.5623 15.7491 11.4522 15.2863 11.4521 14.8169C11.4527 14.3856 11.5463 13.9596 11.7265 13.5678C11.9067 13.1759 12.1692 12.8276 12.4962 12.5464C12.8232 12.2652 13.2069 12.0578 13.6213 11.9384C14.0357 11.819 14.471 11.7903 14.8975 11.8543C15.324 11.9183 15.7316 12.0735 16.0927 12.3094C16.4538 12.5452 16.7597 12.8561 16.9898 13.2209C17.2198 13.5857 17.3685 13.9958 17.4257 14.4233C17.4828 14.8507 17.4472 15.2855 17.3211 15.6979C18.2632 15.1202 19.3471 14.8152 20.4521 14.8169C21.9891 14.8169 23.3911 15.3949 24.4521 16.3449V10.8169C24.4521 10.0212 24.1361 9.25818 23.5735 8.69557C23.0109 8.13297 22.2478 7.81689 21.4521 7.81689H7.45215ZM14.4521 13.8169C14.1869 13.8169 13.9326 13.9223 13.745 14.1098C13.5575 14.2973 13.4521 14.5517 13.4521 14.8169C13.4521 15.0821 13.5575 15.3365 13.745 15.524C13.9326 15.7115 14.1869 15.8169 14.4521 15.8169C14.7174 15.8169 14.9717 15.7115 15.1593 15.524C15.3468 15.3365 15.4521 15.0821 15.4521 14.8169C15.4521 14.5517 15.3468 14.2973 15.1593 14.1098C14.9717 13.9223 14.7174 13.8169 14.4521 13.8169Z" fill="white"/>
<g id="Group 38">
<g id="Group 37">
<path id="Vector 223" d="M17.5942 19.358H20.4453M20.4453 19.358H23.2964L20.4453 19.3935M20.4453 19.358V16.9702V19.3935M20.4453 21.8169V19.3935M20.4453 19.3935H17.5942" stroke="white" stroke-linejoin="round"/>
</g>
<path id="Vector 224" d="M23.3028 19.3964L20.4518 19.3887M20.4518 19.3887L17.6007 19.381L20.4519 19.3532M20.4518 19.3887L20.4453 21.7765L20.4519 19.3532M20.4584 16.9299L20.4519 19.3532M20.4519 19.3532L23.3029 19.3609" stroke="white" stroke-linejoin="round"/>
</g>
</g>
</g>
</svg>
