<svg width="31" height="31" viewBox="0 0 31 31" fill="none" xmlns="http://www.w3.org/2000/svg">
<g id="Shape">
<path d="M15.1338 19.7832C17.6191 19.7832 19.6338 17.7685 19.6338 15.2832C19.6338 12.7979 17.6191 10.7832 15.1338 10.7832C12.6485 10.7832 10.6338 12.7979 10.6338 15.2832C10.6338 17.7685 12.6485 19.7832 15.1338 19.7832Z" fill="#0375FA"/>
<path fill-rule="evenodd" clip-rule="evenodd" d="M6.13379 0.283203C2.82008 0.283203 0.133789 2.96949 0.133789 6.2832V24.2832C0.133789 27.5969 2.82008 30.2832 6.13379 30.2832H24.1338C27.4475 30.2832 30.1338 27.5969 30.1338 24.2832V6.2832C30.1338 2.96949 27.4475 0.283203 24.1338 0.283203H6.13379ZM15.1338 22.7832C19.2759 22.7832 22.6338 19.4253 22.6338 15.2832C22.6338 11.1411 19.2759 7.7832 15.1338 7.7832C10.9917 7.7832 7.63379 11.1411 7.63379 15.2832C7.63379 19.4253 10.9917 22.7832 15.1338 22.7832ZM24.1338 6.2832C24.1338 7.11163 23.4622 7.7832 22.6338 7.7832C21.8054 7.7832 21.1338 7.11163 21.1338 6.2832C21.1338 5.45478 21.8054 4.7832 22.6338 4.7832C23.4622 4.7832 24.1338 5.45478 24.1338 6.2832Z" fill="#0375FA"/>
</g>
</svg>
