<svg width="24" height="25" viewBox="0 0 24 25" fill="none" xmlns="http://www.w3.org/2000/svg">
<path id="Shape" d="M5.35017 24.0748H0.551099V8.21698H5.55882V24.0748H5.35017ZM3.05496 6.13043C1.38572 6.13043 0.133789 4.66984 0.133789 3.20926C0.133789 1.54002 1.38572 0.288086 3.05496 0.288086C4.7242 0.288086 5.97613 1.54002 5.97613 3.20926C5.76748 4.66984 4.51555 6.13043 3.05496 6.13043ZM23.9205 24.0748H18.9128V16.3545C18.9128 14.4766 18.9128 12.1814 16.4089 12.1814C13.905 12.1814 13.4877 14.268 13.4877 16.3545V24.2834H8.47999V8.21698H13.2791V10.3035C13.905 9.0516 15.5743 7.79967 17.8695 7.79967C22.8772 7.79967 23.7118 11.1382 23.7118 15.3113V24.0748H23.9205Z" fill="#0375FA"/>
</svg>
