<svg width="138" height="132" viewBox="0 0 138 132" fill="none" xmlns="http://www.w3.org/2000/svg">
<g id="Group">
<g id="Group_2">
<g id="Group_3">
<g id="Group_4">
<g id="Group_5">
<path id="Vector" d="M108.537 34.357C112.528 34.357 116.521 34.3308 120.512 34.3721C121.796 34.3859 122.805 34.083 123.786 33.0392C126.133 30.5414 129.563 30.675 131.809 33.1535C133.651 35.1873 133.585 38.9629 131.67 41.0173C129.552 43.2893 126.025 43.3622 123.825 40.9595C122.66 39.6872 121.386 39.4751 119.882 39.4779C110.978 39.4999 102.075 39.493 93.1703 39.471C89.852 39.4627 89.3537 38.8899 89.3447 35.2534C89.3383 32.8671 89.2522 30.4712 89.4012 28.0946C89.5078 26.3941 88.894 25.9231 87.4364 25.9879C85.5975 26.0691 83.7508 26.0512 81.9119 25.9755C80.5943 25.9218 79.9445 26.3376 79.9535 27.9004C79.9985 35.5549 79.9818 43.2094 79.9663 50.8639C79.9638 52.2505 80.3054 52.8908 81.8271 52.8247C85.2751 52.6773 88.7347 52.7241 92.1866 52.8329C93.892 52.8866 95.1736 52.4956 96.4398 51.0828C98.5561 48.7214 101.935 48.8164 104.163 50.9382C106.102 52.7847 106.4 55.993 104.854 58.3683C102.945 61.2971 98.6049 61.6675 96.1611 58.875C95.0734 57.6316 93.9806 57.2791 92.5282 57.319C89.0005 57.4168 85.4703 57.6743 81.9453 57.3259C80.3991 57.1731 79.9304 57.9566 79.9561 59.5015C80.0113 62.7924 80.028 66.0875 79.9381 69.377C79.897 70.8986 80.4736 71.459 81.8014 71.4604C88.4792 71.47 95.1582 71.4782 101.836 71.5333C103.369 71.5457 103.742 70.2886 104.169 69.2049C106.087 64.3553 108.462 59.7466 110.558 54.992C111.35 53.1951 112.433 52.4419 114.319 52.5025C118.077 52.6236 121.841 52.4846 125.602 52.5259C126.749 52.5383 127.584 52.2367 128.416 51.2852C130.599 48.7888 134.359 48.7571 136.452 51.0553C138.498 53.3011 138.519 56.833 136.498 59.0636C134.427 61.3494 130.578 61.3618 128.404 58.9039C127.572 57.9635 126.777 57.5958 125.622 57.6165C122.552 57.6715 119.481 57.6564 116.41 57.6137C115.299 57.5986 114.58 57.9332 114.074 59.1146C112.57 62.6231 110.999 66.1026 109.342 69.5312C108.648 70.966 109.017 71.5003 110.372 71.5058C113.978 71.5196 117.583 71.4769 121.189 71.4906C122.308 71.4948 122.695 70.5846 123.301 69.8479C125.062 67.7137 127.635 67.1147 130.003 68.1791C131.99 69.0713 133.237 71.2524 133.165 73.7103C133.04 78.0023 128.276 80.7217 124.87 78.1276C122.926 76.6473 121.061 76.4601 118.898 76.4669C106.693 76.5124 94.4866 76.5138 82.2817 76.4367C80.4775 76.4256 79.906 76.9613 79.9509 78.951C80.0845 84.9035 80.0049 84.9049 85.6501 84.9146C90.3322 84.9228 95.0157 84.9683 99.6978 84.9242C101.288 84.909 102.461 85.4364 103.403 86.8767C105.516 90.1043 107.771 93.2245 109.894 96.4465C110.591 97.5054 111.379 97.9405 112.579 97.9144C115.217 97.8552 117.699 98.1608 119.976 95.7415C121.963 93.6307 125.606 94.6937 127.292 97.1612C128.989 99.6438 128.605 102.92 126.382 104.915C124.364 106.725 120.858 106.636 119.026 104.477C117.952 103.213 116.79 102.998 115.348 103.008C108.196 103.055 108.196 103.03 104.101 96.6682C103.97 96.4658 103.781 96.2992 103.683 96.0816C101.353 90.969 97.7009 89.1019 92.3638 89.9239C88.9132 90.4554 85.3201 89.9514 81.7912 89.8688C80.5982 89.8413 79.9561 90.1759 79.9728 91.6547C80.0305 96.839 80.0293 102.026 79.9728 107.21C79.9573 108.667 80.5339 109.017 81.7706 108.999C86.2986 108.931 90.8292 108.893 95.356 108.969C96.6157 108.989 97.2617 108.254 98.063 107.466C100.075 105.486 102.57 105.237 104.864 106.644C106.943 107.919 107.879 110.158 107.396 112.704C106.645 116.662 101.764 118.788 98.9119 116.078C96.9779 114.24 95.0259 113.96 92.6977 114.029C89.093 114.135 85.4819 114.091 81.8746 114.011C80.4993 113.981 79.9959 114.485 79.9509 115.977C79.8829 118.238 79.9882 120.178 81.7539 121.955C83.7983 124.012 83.4439 127.409 81.4175 129.414C79.0315 131.775 75.568 131.719 73.3528 129.281C71.4818 127.221 71.2943 123.641 73.3567 121.729C74.9311 120.269 75.0736 118.695 75.0723 116.743C75.0479 82.5021 75.0608 48.2628 75.0877 14.0221C75.089 12.7154 74.8283 11.7625 73.8292 10.8193C71.4188 8.54736 71.3238 4.9962 73.4029 2.7022C75.5154 0.371016 79.0546 0.285644 81.3045 2.51218C83.5659 4.74973 83.6083 8.05992 81.4085 10.6183C80.2424 11.9746 79.3731 18.5206 80.0935 20.173C80.4466 20.9826 81.063 20.8188 81.6576 20.8188C87.7215 20.8188 93.7867 20.7706 99.8493 20.8504C101.223 20.8683 101.872 20.049 102.672 19.1292C104.593 16.922 107.581 16.502 109.793 18.0029C111.981 19.4886 112.814 22.1227 111.972 24.889C110.861 28.5393 106.225 29.7896 103.162 27.1459C100.601 24.9345 97.4903 25.5968 95.0734 26.3321C93.2294 26.8939 94.6676 30.2908 94.2978 32.3879C94.1591 33.1728 94.1758 34.0981 95.1864 34.3721C95.478 34.4506 95.7939 34.4382 96.0995 34.4382C100.242 34.4423 104.386 34.441 108.529 34.441C108.537 34.4148 108.537 34.3859 108.537 34.357ZM102.174 109.639C100.987 109.623 100.441 110.315 100.339 111.407C100.229 112.578 100.785 113.294 101.89 113.294C102.984 113.292 103.853 112.721 103.878 111.464C103.901 110.319 103.074 109.831 102.174 109.639ZM129.446 73.1926C129.256 72.2245 128.733 71.4893 127.634 71.5815C126.666 71.6641 125.796 72.1392 125.828 73.322C125.862 74.5365 126.627 75.2731 127.766 75.2194C128.8 75.1712 129.384 74.4552 129.446 73.1926ZM77.371 127.303C78.4061 127.187 79.2395 126.748 79.2523 125.551C79.2639 124.452 78.6321 123.684 77.5855 123.557C76.4297 123.417 75.8749 124.295 75.7671 125.323C75.6438 126.47 76.3604 127.096 77.371 127.303ZM124.633 100.341C124.535 99.2734 123.92 98.6125 122.88 98.5588C121.639 98.4941 121.097 99.3202 121.105 100.561C121.113 101.8 121.847 102.267 122.902 102.257C124.015 102.248 124.542 101.563 124.633 100.341ZM100.146 53.2915C99.1456 53.4567 98.4932 54.024 98.5574 55.2109C98.6242 56.4213 99.3459 56.9197 100.4 56.8109C101.406 56.7063 102.18 56.1431 102.074 54.9603C101.972 53.8477 101.229 53.3038 100.146 53.2915ZM132.412 53.257C131.295 53.3355 130.643 53.9717 130.616 55.1104C130.587 56.3345 131.371 56.8674 132.411 56.8578C133.45 56.8481 134.196 56.3276 134.166 55.0746C134.139 53.8643 133.422 53.3672 132.412 53.257ZM126.35 37.0627C126.239 38.1422 126.619 38.8624 127.675 38.8734C128.75 38.8858 129.4 38.1698 129.425 37.0668C129.451 35.9721 128.84 35.1776 127.784 35.1253C126.583 35.0675 126.262 35.946 126.35 37.0627ZM107.027 24.6866C107.9 24.6605 108.562 23.9348 108.624 22.8732C108.691 21.7289 107.978 21.057 106.871 21.0887C105.854 21.1176 104.968 21.5224 105.061 22.7947C105.136 23.8205 105.604 24.6976 107.027 24.6866ZM79.2716 6.60723C79.21 5.48777 78.6398 4.90394 77.6651 4.86539C76.6185 4.82546 75.821 5.35145 75.7671 6.53288C75.7144 7.69916 76.4117 8.35872 77.484 8.39452C78.6 8.43308 79.1175 7.68263 79.2716 6.60723Z" fill="white"/>
<path id="Vector_2" d="M64.7171 74.0586C64.5245 59.4395 64.0044 47.4311 64.2099 35.4144C64.337 28.0078 64.8622 20.6287 66.0039 13.3143C66.5792 9.62684 64.8276 7.14144 61.2897 6.81786C57.7928 6.49703 54.4257 6.91425 51.2628 8.77864C47.3139 11.1057 43.6296 13.8513 39.9466 16.6121C38.8165 17.459 39.0464 18.0786 39.8593 18.9199C41.1807 20.2872 42.5124 21.6532 43.7388 23.1169C44.4142 23.9251 44.9266 24.9909 43.9763 25.9685C42.9092 27.0646 42.0051 26.3059 41.1974 25.4604C39.7707 23.9678 38.4467 22.3485 36.9339 20.9661C33.5488 17.8748 30.4706 17.6903 26.5282 19.9251C21.2348 22.9255 17.8369 27.8784 14.62 33.0116C13.1689 35.3277 11.904 37.7773 10.5389 40.1566C10.2499 40.6592 9.90835 41.1742 10.1806 41.7498C10.5132 42.452 11.1155 42.072 11.6124 41.9811C13.1201 41.7057 14.6161 41.2761 16.134 41.1632C17.5775 41.0558 17.6147 40.4403 17.0702 39.3084C16.8596 38.872 16.7145 38.3997 16.5527 37.9384C16.0596 36.5421 16.1353 35.1817 17.5531 34.6158C19.062 34.0141 19.4177 35.4571 19.9314 36.5766C20.6056 38.0458 21.3209 39.5081 22.1633 40.8699C22.7643 41.8407 23.1046 42.7605 22.6603 43.8551C22.1877 45.0159 21.204 44.7873 20.2845 44.8314C17.3938 44.9677 14.4762 44.4858 11.6368 45.659C7.20386 47.4917 5.058 51.0621 4.48654 55.9159C3.87784 61.0946 4.24768 66.2609 4.78575 71.4176C4.83455 71.8844 5.16716 72.4696 4.61881 72.7367C3.89582 73.0892 3.71475 72.3512 3.53625 71.8541C0.76627 64.1198 -0.648898 56.3579 3.33334 48.5657C3.80721 47.639 4.3273 46.492 5.11964 46.0417C8.34036 44.2118 8.76414 40.8974 9.7247 37.6244C12.5807 27.8921 17.937 20.2473 26.8518 15.9429C29.234 14.7932 31.7561 14.3539 34.2333 15.3921C35.9566 16.115 36.9776 15.6854 38.1834 14.2383C41.6224 10.1102 45.5174 6.559 50.2483 4.14795C54.513 1.97512 58.9396 1.56754 63.492 2.54242C67.6797 3.43882 70.6526 7.06846 70.2622 12.2513C68.6056 34.2468 68.8111 56.3 69.3928 78.3492C69.692 89.7008 70.0015 101.073 69.3453 112.408C68.9536 119.179 66.6434 125.284 60.7901 128.962C57.2368 131.194 53.3663 132.221 49.1837 131.792C43.5205 131.21 38.8961 127.108 37.4168 120.662C36.9352 118.562 35.9515 117.939 34.2705 117.59C32.045 117.127 29.948 116.202 27.8535 115.285C21.3491 112.437 18.5971 106.673 17.7675 99.7236C17.512 97.5811 16.7338 97.1102 15.1016 96.6696C10.2538 95.3628 6.48472 92.5098 4.45957 87.4178C2.99047 83.7248 3.72374 80.1282 5.06442 76.6514C7.67644 69.8782 12.3714 65.6537 19.0556 64.0427C20.5722 63.6778 21.8962 64.0482 22.2955 65.8754C22.6885 67.6709 21.5045 68.4103 20.1638 68.8069C14.8126 70.3876 11.2066 73.9003 9.38054 79.5719C7.46326 85.53 11.4096 91.7235 17.3309 91.9012C18.0976 91.9246 18.8745 91.8103 19.6309 91.9081C21.5392 92.1573 22.754 93.1074 22.641 95.4303C22.546 97.3952 22.3957 99.3629 22.8811 101.32C24.2257 106.742 27.3758 110.194 32.3211 112.082C34.4824 112.907 36.7117 113.288 38.8833 113.978C39.4933 114.172 40.1264 114.052 40.7967 113.561C44.4284 110.902 47.8071 107.984 50.3215 104.047C50.7093 103.439 51.2024 102.909 51.6313 102.329C52.4905 101.169 53.6616 100.526 54.8379 101.358C56.1093 102.257 55.7202 103.688 55.0152 104.875C52.1142 109.759 48.4247 113.725 43.4113 116.103C41.1987 117.152 41.1704 117.869 42.1066 120.328C44.0534 125.441 47.3576 127.756 52.5187 127.115C58.1511 126.416 62.3889 122.859 63.9774 117.233C64.7595 114.464 65.0639 111.625 65.1139 108.717C65.3245 96.2895 64.9791 83.8708 64.7171 74.0586Z" fill="white"/>
</g>
</g>
<path id="Vector_3" d="M56.188 82.838C56.2393 90.5476 51.4763 98.1718 45.2545 100.736C43.5093 101.454 41.6819 101.713 39.9149 100.681C38.519 99.8654 38.2737 98.83 39.4063 97.5315C40.0985 96.7384 40.8998 96.149 41.8488 95.7387C47.8421 93.1473 50.6031 88.1131 51.1694 81.4445C51.3492 79.3213 51.4892 77.1925 51.7203 75.0748C51.7948 74.3932 51.6497 73.3549 52.442 73.1856C53.2922 73.0038 53.7622 73.9388 54.1089 74.6341C55.4676 77.3509 56.31 80.2301 56.188 82.838Z" fill="white"/>
<path id="Vector_4" d="M42.774 78.4057C35.4825 78.5627 29.4494 68.3305 32.62 61.3838C34.5181 57.2268 37.2341 53.834 41.1907 51.7438C41.6029 51.5262 42.0048 51.2687 42.4376 51.1214C43.1246 50.8887 43.9272 50.8474 44.351 51.4945C44.8634 52.278 44.1057 52.771 43.6755 53.3204C41.6645 55.8953 39.4275 58.2388 37.6476 61.0575C33.8811 67.0224 37.2701 71.2593 41.3936 73.4611C42.1448 73.8631 43.0026 74.0766 43.6858 74.575C44.4743 75.1492 45.5954 75.7799 45.1356 77.0618C44.7414 78.1661 43.5908 78.2584 42.774 78.4057Z" fill="white"/>
<path id="Vector_5" d="M43.5498 44.5438C42.2463 44.6072 40.9454 44.5769 39.7537 43.8925C39.3569 43.6654 38.8702 43.4106 38.9139 42.8351C38.9563 42.2691 39.4455 42.0846 39.8873 41.9483C41.5798 41.4278 43.2672 40.8908 44.9713 40.4199C46.8424 39.9021 48.585 39.0512 50.275 38.0873C54.4563 35.7024 55.5992 31.8993 53.4765 27.3182C52.8678 26.0059 51.9547 24.8589 51.2921 23.5701C50.8953 22.7976 50.492 21.831 51.2394 21.0585C51.9072 20.3687 52.8292 20.4127 53.6177 20.8189C54.2932 21.1673 54.9623 21.6382 55.4798 22.2152C61.1828 28.5836 59.688 38.1314 52.3567 41.9937C49.5931 43.4492 46.6832 44.4722 43.5498 44.5438Z" fill="white"/>
</g>
</g>
</g>
</svg>
