<svg width="25" height="25" viewBox="0 0 25 25" fill="none" xmlns="http://www.w3.org/2000/svg">
<g id="mingcute:time-line" clip-path="url(#clip0_1106_57)">
<g id="Group">
<path id="Vector" d="M12.5322 1.59863C18.0552 1.59863 22.5322 6.07563 22.5322 11.5986C22.5322 17.1216 18.0552 21.5986 12.5322 21.5986C7.00923 21.5986 2.53223 17.1216 2.53223 11.5986C2.53223 6.07563 7.00923 1.59863 12.5322 1.59863ZM12.5322 3.59863C10.4105 3.59863 8.37566 4.44149 6.87537 5.94178C5.37508 7.44207 4.53223 9.4769 4.53223 11.5986C4.53223 13.7204 5.37508 15.7552 6.87537 17.2555C8.37566 18.7558 10.4105 19.5986 12.5322 19.5986C14.654 19.5986 16.6888 18.7558 18.1891 17.2555C19.6894 15.7552 20.5322 13.7204 20.5322 11.5986C20.5322 9.4769 19.6894 7.44207 18.1891 5.94178C16.6888 4.44149 14.654 3.59863 12.5322 3.59863ZM12.5322 5.59863C12.7772 5.59867 13.0136 5.68859 13.1966 5.85135C13.3796 6.01411 13.4966 6.23838 13.5252 6.48163L13.5322 6.59863V11.1846L16.2392 13.8916C16.4186 14.0716 16.5227 14.3131 16.5305 14.567C16.5382 14.821 16.449 15.0683 16.281 15.2589C16.1129 15.4495 15.8787 15.5689 15.6258 15.593C15.3728 15.6171 15.1202 15.544 14.9192 15.3886L14.8252 15.3056L11.8252 12.3056C11.6698 12.1501 11.57 11.9476 11.5412 11.7296L11.5322 11.5986V6.59863C11.5322 6.33342 11.6376 6.07906 11.8251 5.89153C12.0127 5.70399 12.267 5.59863 12.5322 5.59863Z" fill="#757D91"/>
</g>
</g>
<defs>
<clipPath id="clip0_1106_57">
<rect width="24" height="24" fill="white" transform="translate(0.532227 0.598633)"/>
</clipPath>
</defs>
</svg>
