<svg width="24" height="28" viewBox="0 0 24 28" fill="none" xmlns="http://www.w3.org/2000/svg">
<g id="Iconly/Bold/Notification">
<g id="Notification">
<path id="Vector" d="M8.85121 23.7469C9.52724 23.6039 13.6466 23.6039 14.3226 23.7469C14.9005 23.8804 15.5255 24.1923 15.5255 24.8733C15.4919 25.5216 15.1115 26.0963 14.586 26.4614C13.9046 26.9925 13.1049 27.3289 12.269 27.4501C11.8067 27.5101 11.3524 27.5114 10.9062 27.4501C10.0689 27.3289 9.26919 26.9925 8.58913 26.46C8.06229 26.0963 7.68194 25.5216 7.64834 24.8733C7.64834 24.1923 8.27329 23.8804 8.85121 23.7469ZM11.6667 0.449707C14.4797 0.449707 17.3532 1.78445 19.0601 3.99903C20.1675 5.42502 20.6755 6.84965 20.6755 9.06423V9.64035C20.6755 11.3387 21.1244 12.3398 22.1123 13.4934C22.8609 14.3433 23.1001 15.4342 23.1001 16.6178C23.1001 17.8 22.7117 18.9222 21.9335 19.8334C20.9148 20.9257 19.478 21.6231 18.0117 21.7443C15.8869 21.9254 13.7607 22.078 11.6063 22.078C9.4505 22.078 7.32564 21.9867 5.20079 21.7443C3.73315 21.6231 2.29642 20.9257 1.27901 19.8334C0.500842 18.9222 0.111084 17.8 0.111084 16.6178C0.111084 15.4342 0.351659 14.3433 1.09892 13.4934C2.11767 12.3398 2.53699 11.3387 2.53699 9.64035V9.06423C2.53699 6.78972 3.10416 5.30244 4.27209 3.84649C6.00853 1.72316 8.79194 0.449707 11.5458 0.449707H11.6667Z" fill="#1E3D8F"/>
</g>
</g>
</svg>
