<svg width="34" height="34" viewBox="0 0 34 34" fill="none" xmlns="http://www.w3.org/2000/svg">
<g id="Search">
<g id="Iconly/Light-Outline/Search">
<g id="Search_2">
<path id="Combined-Shape" fill-rule="evenodd" clip-rule="evenodd" d="M17.3697 2.8335C9.76221 2.8335 3.57421 9.0215 3.57421 16.629C3.57421 20.2182 4.9516 23.4917 7.20562 25.9485L2.77039 30.3745C2.35531 30.7896 2.35389 31.4611 2.76897 31.8762C2.97581 32.0858 3.24922 32.1892 3.52122 32.1892C3.79181 32.1892 4.06381 32.0858 4.27206 31.879L8.76082 27.4028C11.1221 29.2938 14.1161 30.4259 17.3697 30.4259C24.9772 30.4259 31.1666 24.2365 31.1666 16.629C31.1666 9.0215 24.9772 2.8335 17.3697 2.8335ZM17.3697 4.9585C23.8056 4.9585 29.0416 10.1931 29.0416 16.629C29.0416 23.0649 23.8056 28.3009 17.3697 28.3009C10.9352 28.3009 5.69921 23.0649 5.69921 16.629C5.69921 10.1931 10.9352 4.9585 17.3697 4.9585Z" fill="#1E3D8F"/>
</g>
</g>
</g>
</svg>
