<svg width="31" height="31" viewBox="0 0 31 31" fill="none" xmlns="http://www.w3.org/2000/svg">
<path id="Vector" d="M15.9209 0.283203C24.2054 0.283203 30.9209 6.9987 30.9209 15.2832C30.9209 23.5677 24.2054 30.2832 15.9209 30.2832C13.2701 30.2875 10.6659 29.5859 8.37592 28.2507L0.92692 30.2832L2.95492 22.8312C1.61856 20.5405 0.916491 17.9352 0.920919 15.2832C0.920919 6.9987 7.63642 0.283203 15.9209 0.283203ZM10.8089 8.2332L10.5089 8.2452C10.3147 8.25703 10.1249 8.30805 9.95091 8.3952C9.7882 8.48734 9.63966 8.60253 9.50991 8.7372C9.32991 8.9067 9.22791 9.0537 9.11841 9.1962C8.5636 9.91755 8.26487 10.8032 8.26941 11.7132C8.27241 12.4482 8.46441 13.1637 8.76441 13.8327C9.37791 15.1857 10.3874 16.6182 11.7194 17.9457C12.0404 18.2652 12.3554 18.5862 12.6944 18.8847C14.3495 20.3419 16.3218 21.3927 18.4544 21.9537L19.3064 22.0842C19.5839 22.0992 19.8614 22.0782 20.1404 22.0647C20.5773 22.0421 21.0038 21.9238 21.3899 21.7182C21.5863 21.617 21.778 21.5069 21.9644 21.3882C21.9644 21.3882 22.0289 21.3462 22.1519 21.2532C22.3544 21.1032 22.4789 20.9967 22.6469 20.8212C22.7714 20.6922 22.8794 20.5407 22.9619 20.3682C23.0789 20.1237 23.1959 19.6572 23.2439 19.2687C23.2799 18.9717 23.2694 18.8097 23.2649 18.7092C23.2589 18.5487 23.1254 18.3822 22.9799 18.3117L22.1069 17.9202C22.1069 17.9202 20.8019 17.3517 20.0039 16.9887C19.9204 16.9522 19.8309 16.9314 19.7399 16.9272C19.6373 16.9167 19.5336 16.9282 19.4358 16.9611C19.338 16.9939 19.2484 17.0473 19.1729 17.1177C19.1654 17.1147 19.0649 17.2002 17.9804 18.5142C17.9182 18.5978 17.8324 18.661 17.7341 18.6958C17.6358 18.7305 17.5294 18.7352 17.4284 18.7092C17.3307 18.683 17.235 18.6499 17.1419 18.6102C16.9559 18.5322 16.8914 18.5022 16.7639 18.4482C15.903 18.0725 15.1059 17.5649 14.4014 16.9437C14.2124 16.7787 14.0369 16.5987 13.8569 16.4247C13.2668 15.8595 12.7525 15.2202 12.3269 14.5227L12.2384 14.3802C12.1748 14.2844 12.1235 14.1811 12.0854 14.0727C12.0284 13.8522 12.1769 13.6752 12.1769 13.6752C12.1769 13.6752 12.5414 13.2762 12.7109 13.0602C12.8759 12.8502 13.0154 12.6462 13.1054 12.5007C13.2824 12.2157 13.3379 11.9232 13.2449 11.6967C12.8249 10.6707 12.3899 9.6492 11.9429 8.6352C11.8544 8.4342 11.5919 8.2902 11.3534 8.2617C11.2724 8.2527 11.1914 8.2437 11.1104 8.2377C10.909 8.22769 10.7071 8.22969 10.5059 8.2437L10.8074 8.2317L10.8089 8.2332Z" fill="#0375FA"/>
</svg>
